<?xml version="1.0" standalone="no"?>
<!DOCTYPE svg PUBLIC "-//W3C//DTD SVG 20010904//EN"
 "http://www.w3.org/TR/2001/REC-SVG-20010904/DTD/svg10.dtd">
<svg version="1.0" xmlns="http://www.w3.org/2000/svg"
 width="1997.000000pt" height="1917.000000pt" viewBox="0 0 1997.000000 1917.000000"
 preserveAspectRatio="xMidYMid meet">
<metadata>
Created by potrace 1.11, written by Peter Selinger 2001-2013
</metadata>
<g transform="translate(0.000000,1917.000000) scale(0.100000,-0.100000)"
fill="#ffc600" stroke="none">
<path d="M9992 15549 c-150 -74 -280 -419 -327 -861 -32 -313 -15 -750 41
-1028 61 -305 173 -534 287 -589 55 -26 89 -26 144 0 150 73 281 418 328 861
32 313 15 750 -41 1028 -61 305 -173 534 -287 589 -55 27 -91 26 -145 0z"/>
</g>
<g transform="translate(0.000000,1917.000000) scale(0.100000,-0.100000)"
fill="#ec008c" stroke="none">
<path d="M13635 14351 c-18 -17 -520 -337 -765 -488 -613 -376 -1157 -673
-1525 -833 -453 -197 -962 -292 -1397 -261 -357 25 -747 114 -1068 243 -430
172 -1264 638 -2088 1165 -106 68 -195 123 -197 123 -3 0 -5 -13 -5 -28 0 -31
-8 -23 345 -307 1009 -811 1878 -1392 2373 -1586 135 -52 330 -102 515 -130
111 -17 189 -22 357 -23 239 0 352 13 563 65 616 154 1536 774 2705 1822 180
162 212 195 212 219 0 29 -9 35 -25 19z"/>
</g>
<g transform="translate(0.000000,1917.000000) scale(0.100000,-0.100000)"
fill="#110b80" stroke="none">
<path d="M6715 12513 c-236 -11 -544 -40 -637 -59 l-28 -6 0 -180 0 -180 28 6
c66 14 336 37 556 48 526 26 1069 -33 1526 -166 543 -157 1023 -428 1356 -762
121 -122 132 -138 112 -162 -352 -402 -710 -913 -972 -1384 -553 -999 -889
-2149 -929 -3180 l-4 -98 602 0 602 0 7 128 c37 673 164 1543 312 2137 202
810 500 1474 810 1803 l70 75 75 -101 c454 -621 786 -1590 993 -2902 57 -358
126 -960 126 -1092 l0 -48 600 0 600 0 0 45 c0 65 -26 310 -56 525 -184 1333
-698 2588 -1473 3600 -116 152 -247 305 -361 424 l-85 88 65 60 c600 555 1356
882 2300 994 183 22 740 30 937 15 144 -12 340 -35 396 -47 l27 -6 0 180 0
180 -32 6 c-76 13 -407 46 -578 57 -352 22 -910 3 -1230 -42 -896 -126 -1719
-481 -2221 -957 l-83 -79 -96 85 c-607 542 -1399 860 -2400 966 -276 30 -656
42 -915 29z m3202 -1775 c-418 -520 -720 -1131 -946 -1913 -174 -606 -311
-1412 -338 -1992 l-6 -143 -270 0 -270 0 7 83 c34 406 161 1033 302 1482 296
947 819 1877 1396 2481 l91 95 30 -30 30 -30 -26 -33z m725 -209 c516 -618
948 -1429 1212 -2274 141 -449 268 -1076 302 -1482 l7 -83 -270 0 -270 0 -6
143 c-27 580 -164 1386 -338 1992 -226 782 -528 1393 -946 1913 l-26 33 29 30
29 31 91 -95 c50 -51 134 -145 186 -208z"/>
</g>
<g transform="translate(0.000000,1917.000000) scale(0.100000,-0.100000)"
fill="#110b80" stroke="none">
<path d="M10970 6205 c-157 -44 -234 -144 -234 -300 0 -102 31 -170 120 -265
35 -37 64 -70 64 -73 0 -3 -20 -17 -44 -31 -79 -46 -153 -123 -188 -194 -30
-61 -33 -75 -33 -162 0 -84 3 -102 28 -152 108 -221 467 -265 749 -91 l71 44
62 -61 61 -60 99 0 100 0 -109 109 -108 108 40 59 c76 113 115 218 128 343 l7
71 -79 0 -80 0 -12 -90 c-13 -94 -36 -166 -79 -238 l-25 -44 -171 178 c-95 97
-173 180 -174 183 -1 3 25 22 59 41 83 47 168 127 203 192 41 75 47 191 15
266 -28 66 -93 124 -169 153 -74 28 -223 35 -301 14z m246 -142 c81 -42 107
-154 58 -252 -27 -54 -106 -123 -183 -160 l-34 -16 -54 60 c-76 83 -103 139
-103 215 0 90 30 138 107 166 51 19 160 13 209 -13z m-1 -793 c216 -217 208
-194 90 -251 -166 -80 -352 -75 -431 13 -62 68 -79 185 -37 263 29 55 147 164
178 165 6 0 96 -86 200 -190z"/>
<path d="M6700 5530 l0 -670 80 0 80 0 0 670 0 670 -80 0 -80 0 0 -670z"/>
<path d="M7200 5530 l0 -670 80 0 80 0 0 670 0 670 -80 0 -80 0 0 -670z"/>
<path d="M7710 5530 l0 -670 80 0 80 0 0 670 0 670 -80 0 -80 0 0 -670z"/>
<path d="M8080 6125 l0 -75 225 0 225 0 0 -595 0 -595 80 0 80 0 0 595 0 595
225 0 225 0 0 75 0 75 -530 0 -530 0 0 -75z"/>
<path d="M9350 5531 l0 -671 209 0 c307 0 444 25 580 108 195 118 292 306 292
567 0 297 -124 496 -378 603 -109 46 -165 54 -440 59 l-263 5 0 -671z m553
495 c148 -40 245 -114 302 -229 46 -94 58 -167 52 -302 -6 -133 -31 -211 -92
-293 -100 -136 -257 -192 -542 -192 l-113 0 0 521 0 522 168 -6 c103 -3 189
-12 225 -21z"/>
<path d="M12090 5530 l0 -670 81 0 81 0 -4 579 c-1 319 -2 579 -2 578 1 -1 24
-61 52 -133 27 -72 135 -332 238 -578 l189 -447 39 3 39 3 154 365 c85 201
191 458 237 573 l83 207 -5 -575 -5 -575 87 0 86 0 0 670 0 671 -122 -3 -121
-3 -155 -370 c-85 -203 -183 -444 -217 -535 -35 -91 -66 -158 -69 -150 -3 8
-19 53 -36 100 -17 47 -113 282 -212 523 l-182 437 -118 0 -118 0 0 -670z"/>
<path d="M8940 4450 l0 -380 45 0 45 0 0 180 c0 180 0 181 25 206 67 67 175
71 204 7 7 -15 11 -95 11 -208 l0 -185 46 0 46 0 -4 198 c-3 175 -5 201 -23
231 -35 59 -67 76 -145 76 -61 0 -73 -4 -114 -32 l-46 -33 0 160 0 160 -45 0
-45 0 0 -380z"/>
<path d="M6720 4425 l0 -355 45 0 45 0 0 173 0 172 171 -172 171 -173 56 0 57
0 -178 178 -178 179 162 174 163 174 -50 3 c-55 4 -47 11 -277 -238 l-97 -105
0 173 0 172 -45 0 -45 0 0 -355z"/>
<path d="M7420 4567 c-42 -11 -45 -14 -48 -49 -2 -21 -2 -38 0 -38 2 0 25 7
52 15 130 39 226 -6 226 -106 0 -28 -2 -31 -22 -24 -13 3 -54 9 -93 11 -60 5
-76 2 -114 -18 -58 -30 -83 -65 -88 -125 -10 -101 60 -173 167 -173 45 0 121
28 134 49 10 16 26 4 26 -20 0 -15 7 -19 35 -19 l35 0 0 185 c0 206 -6 233
-59 278 -55 46 -153 59 -251 34z m213 -272 c13 -6 17 -19 17 -56 0 -46 -2 -50
-42 -76 -32 -22 -53 -28 -96 -28 -67 0 -92 24 -92 91 0 39 4 47 33 65 26 17
43 20 97 15 36 -2 73 -8 83 -11z"/>
<path d="M8067 4570 c-16 -5 -44 -20 -63 -35 -24 -19 -35 -22 -38 -13 -14 45
-17 48 -46 48 l-30 0 0 -250 0 -250 40 0 40 0 0 178 0 178 28 26 c56 53 127
72 174 47 39 -21 48 -67 48 -254 l0 -175 40 0 40 0 0 190 c0 211 -9 254 -62
291 -33 24 -125 34 -171 19z"/>
<path d="M8588 4566 c-58 -23 -94 -54 -125 -110 -25 -45 -28 -61 -28 -141 0
-94 12 -132 59 -183 54 -60 186 -89 271 -60 36 12 40 17 43 50 l3 36 -48 -14
c-91 -29 -167 -8 -217 60 -18 23 -21 42 -21 116 0 74 3 93 21 116 50 68 124
89 208 61 l46 -16 0 34 c0 25 -6 37 -22 46 -34 18 -147 21 -190 5z"/>
<path d="M9630 4567 c-150 -48 -202 -309 -86 -435 54 -61 198 -89 296 -60 42
13 45 17 48 50 l3 36 -48 -15 c-58 -18 -156 -13 -201 11 -41 21 -72 71 -72
114 l0 32 170 0 170 0 0 38 c-1 180 -123 279 -280 229z m129 -72 c30 -15 61
-68 61 -104 0 -20 -5 -21 -126 -21 l-126 0 7 28 c21 88 111 135 184 97z"/>
<path d="M10170 4567 c-150 -48 -202 -309 -86 -435 54 -61 198 -89 296 -60 42
13 45 17 48 50 l3 36 -48 -15 c-58 -18 -156 -13 -201 11 -41 21 -72 71 -72
114 l0 32 170 0 170 0 0 38 c-1 180 -123 279 -280 229z m129 -72 c30 -15 61
-68 61 -104 0 -20 -5 -21 -126 -21 l-126 0 7 28 c21 88 111 135 184 97z"/>
<path d="M10734 4561 c-23 -10 -45 -24 -48 -30 -11 -18 -24 -13 -28 12 -2 17
-11 23 -35 25 l-33 3 0 -375 0 -376 40 0 40 0 0 145 c0 80 2 145 5 145 3 0 20
-10 36 -22 25 -19 44 -23 98 -23 90 0 153 36 190 110 31 58 41 180 21 250 -35
123 -171 188 -286 136z m136 -69 c50 -28 74 -82 74 -167 0 -85 -23 -139 -74
-173 -43 -29 -109 -26 -164 7 l-36 23 0 132 c0 147 1 150 70 180 47 20 88 20
130 -2z"/>
<path d="M11906 4565 c-21 -7 -51 -26 -67 -41 -29 -28 -34 -26 -41 21 -2 14
-12 21 -36 23 l-32 3 0 -250 0 -251 40 0 40 0 0 179 0 179 35 31 c24 20 54 34
95 43 59 12 60 13 60 45 0 29 -3 33 -27 33 -16 -1 -45 -7 -67 -15z"/>
<path d="M12150 4567 c-42 -11 -45 -14 -48 -49 -2 -21 -2 -38 0 -38 2 0 25 7
52 15 130 39 226 -6 226 -106 0 -28 -2 -31 -22 -24 -13 3 -54 9 -93 11 -60 5
-76 2 -114 -18 -58 -30 -83 -65 -88 -125 -10 -101 60 -173 167 -173 45 0 121
28 134 49 10 16 26 4 26 -20 0 -15 7 -19 35 -19 l35 0 0 185 c0 206 -6 233
-59 278 -55 46 -153 59 -251 34z m213 -272 c13 -6 17 -19 17 -56 0 -46 -2 -50
-42 -76 -32 -22 -53 -28 -96 -28 -67 0 -92 24 -92 91 0 39 4 47 33 65 26 17
43 20 97 15 36 -2 73 -8 83 -11z"/>
<path d="M12790 4569 c-13 -6 -39 -21 -57 -35 -28 -21 -34 -23 -38 -10 -3 9
-7 23 -10 31 -2 9 -16 15 -35 15 l-30 0 0 -250 0 -250 40 0 40 0 0 178 0 178
33 31 c62 61 128 69 179 24 l33 -29 3 -191 4 -191 39 0 39 0 0 180 c0 180 0
181 25 206 59 59 141 70 186 25 l29 -29 0 -191 0 -191 46 0 46 0 -4 198 c-3
175 -5 201 -23 231 -29 49 -63 71 -121 77 -65 8 -115 -8 -166 -54 -21 -19 -40
-33 -41 -31 -2 2 -10 16 -19 30 -32 50 -131 74 -198 48z"/>
<path d="M11162 4383 c3 -184 4 -189 30 -234 33 -56 79 -81 159 -87 66 -5 117
10 160 45 57 48 62 70 67 276 l4 187 -45 0 -46 0 -3 -190 -3 -190 -28 -27
c-24 -24 -35 -28 -88 -28 -56 0 -63 3 -90 33 l-29 32 0 185 0 185 -46 0 -46 0
4 -187z"/>
</g>
</svg>
