<?xml version="1.0" standalone="no"?>
<!DOCTYPE svg PUBLIC "-//W3C//DTD SVG 20010904//EN"
 "http://www.w3.org/TR/2001/REC-SVG-20010904/DTD/svg10.dtd">
<svg version="1.0" xmlns="http://www.w3.org/2000/svg"
 width="1997.000000pt" height="1917.000000pt" viewBox="0 0 1997.000000 1917.000000"
 preserveAspectRatio="xMidYMid meet">
<metadata>
Created by potrace 1.11, written by Peter Selinger 2001-2013
</metadata>
<g transform="translate(0.000000,1917.000000) scale(0.100000,-0.100000)"
fill="#0076a3" stroke="none">
<path d="M9960 18377 c-56 -30 -82 -52 -126 -111 -141 -187 -281 -607 -403
-1207 -27 -132 -51 -242 -54 -245 -3 -3 -81 -14 -174 -25 -92 -11 -221 -27
-286 -37 l-119 -18 -114 229 c-247 492 -440 800 -614 978 -137 140 -236 182
-323 140 -194 -94 -255 -602 -190 -1582 l6 -95 -104 -38 c-57 -21 -176 -70
-264 -108 -88 -39 -165 -72 -171 -74 -6 -3 -71 64 -145 148 -173 198 -475 505
-612 623 -128 111 -262 204 -354 248 -93 43 -192 50 -242 15 -49 -33 -68 -64
-87 -138 -22 -86 -14 -309 16 -470 44 -239 170 -684 274 -972 l35 -97 -97 -69
c-54 -39 -158 -118 -230 -176 -73 -58 -136 -108 -141 -111 -6 -3 -103 57 -218
132 -438 290 -742 453 -1003 538 -112 37 -266 42 -318 10 -61 -37 -77 -76 -76
-190 1 -84 6 -116 33 -198 85 -259 282 -619 579 -1060 63 -94 90 -143 84 -150
-122 -152 -238 -301 -290 -374 l-65 -91 -126 45 c-299 106 -703 219 -941 263
-161 30 -384 38 -470 16 -74 -19 -105 -38 -138 -87 -35 -50 -28 -149 15 -242
44 -92 137 -226 248 -354 117 -137 425 -439 621 -611 l152 -132 -54 -121 c-45
-100 -142 -339 -168 -413 -6 -17 -14 -18 -94 -13 -593 42 -1054 32 -1307 -29
-201 -48 -307 -138 -291 -247 10 -67 62 -145 155 -237 177 -174 487 -368 972
-610 123 -62 225 -113 226 -114 1 -1 -7 -60 -18 -131 -11 -72 -28 -204 -39
-293 -10 -90 -20 -165 -22 -167 -2 -2 -97 -22 -213 -45 -744 -148 -1209 -324
-1326 -499 -41 -62 -41 -130 0 -192 117 -175 581 -350 1326 -499 116 -23 213
-47 216 -52 4 -6 10 -48 13 -96 4 -47 20 -175 36 -286 16 -110 28 -201 27
-201 -1 -1 -94 -47 -207 -103 -502 -247 -836 -458 -1017 -645 -331 -339 -45
-518 822 -517 181 1 290 5 630 26 l110 6 34 -93 c18 -52 69 -175 112 -274 61
-140 76 -182 66 -191 -6 -6 -73 -64 -147 -129 -500 -435 -823 -807 -890 -1023
-39 -127 -16 -197 84 -247 53 -26 71 -29 178 -33 262 -10 603 63 1163 249 221
73 271 86 277 75 14 -24 196 -265 266 -351 36 -44 69 -85 75 -92 6 -8 -25 -63
-100 -175 -710 -1058 -801 -1578 -252 -1433 249 65 613 256 1076 565 l191 128
139 -110 c76 -61 181 -142 234 -179 l96 -69 -59 -172 c-298 -869 -363 -1397
-187 -1516 75 -51 224 -14 391 99 222 150 580 500 939 922 l24 27 149 -65 c81
-35 203 -86 270 -111 66 -25 122 -47 124 -49 1 -1 -2 -60 -8 -131 -20 -258
-29 -636 -20 -836 19 -399 76 -615 183 -702 31 -24 47 -30 90 -30 74 -1 136
33 236 129 186 178 380 483 644 1011 l116 231 123 -19 c68 -10 197 -27 286
-38 90 -10 166 -20 168 -23 3 -2 27 -114 54 -248 145 -724 321 -1191 492
-1304 252 -167 486 279 698 1325 l47 234 154 18 c85 9 214 26 288 37 74 12
135 20 137 19 1 -2 52 -103 113 -226 255 -510 449 -819 626 -998 204 -207 343
-202 438 16 32 74 53 161 74 311 22 159 24 708 4 1011 -8 114 -14 211 -13 215
0 4 74 37 164 73 89 37 208 86 263 111 55 24 102 44 105 44 3 0 71 -74 150
-165 293 -335 618 -648 810 -779 132 -91 210 -125 295 -129 60 -3 75 -1 104
20 74 50 101 131 101 301 0 249 -82 613 -256 1135 -46 138 -84 256 -84 261 0
4 59 52 130 106 72 53 174 132 227 175 l96 78 206 -137 c442 -295 760 -467
1019 -552 81 -27 113 -32 197 -33 114 -1 150 13 188 74 19 30 22 49 21 135 -1
84 -6 116 -33 198 -86 262 -265 590 -572 1048 l-117 176 110 139 c61 77 140
180 176 231 l65 91 126 -44 c322 -115 731 -230 971 -274 161 -30 384 -38 470
-16 74 19 105 38 138 87 21 29 23 44 20 104 -4 85 -38 163 -129 295 -149 218
-509 584 -908 922 l-43 37 80 188 c45 103 94 224 110 268 16 44 33 80 38 80 5
0 104 -7 219 -15 302 -21 851 -20 1014 3 274 39 415 98 462 194 98 203 -278
516 -1130 943 -196 98 -241 124 -237 138 8 28 55 371 62 459 4 46 12 87 18 91
6 5 65 19 131 31 207 38 523 111 715 166 1003 288 998 617 -15 905 -185 52
-498 124 -700 161 -66 12 -125 28 -131 36 -6 7 -15 53 -18 101 -4 48 -20 173
-35 277 -15 105 -24 192 -19 193 5 2 127 63 271 136 504 255 791 439 969 624
236 243 145 408 -262 476 -265 44 -749 47 -1223 7 -58 -4 -91 -3 -96 4 -4 5
-23 51 -41 100 -18 50 -66 167 -107 260 l-73 170 28 25 c16 14 100 88 188 165
212 186 529 505 634 638 150 190 230 345 230 446 0 61 -37 112 -104 146 -53
26 -71 29 -178 33 -263 10 -616 -67 -1181 -255 -142 -47 -262 -82 -266 -77 -4
5 -42 56 -83 114 -42 58 -119 158 -171 223 l-94 118 133 200 c484 726 678
1204 552 1365 -136 172 -627 -13 -1396 -528 -129 -86 -198 -126 -205 -120 -7
5 -48 38 -92 74 -44 36 -144 113 -221 171 l-141 106 59 173 c298 869 364 1397
187 1516 -75 51 -224 14 -391 -99 -231 -156 -545 -463 -918 -897 l-45 -52
-123 55 c-140 62 -395 165 -411 165 -13 0 -13 7 -1 145 19 222 29 620 20 822
-18 401 -75 619 -183 707 -31 24 -47 30 -90 30 -74 1 -136 -33 -236 -129 -185
-177 -381 -485 -641 -1005 -62 -124 -113 -226 -114 -228 -2 -1 -63 7 -137 19
-74 11 -204 28 -289 38 l-155 17 -23 119 c-147 762 -319 1256 -488 1404 -66
58 -140 76 -194 48z m96 -184 c139 -149 302 -661 430 -1343 20 -107 37 -196
38 -197 0 0 73 -8 161 -17 161 -17 433 -54 578 -80 l78 -13 109 223 c295 608
557 1016 725 1131 l50 35 17 -22 c72 -89 116 -470 104 -905 -6 -222 -30 -623
-41 -688 -5 -33 -12 -29 215 -115 85 -33 244 -99 354 -148 l199 -88 41 49
c316 380 689 760 900 919 79 60 203 130 248 140 25 6 28 3 37 -31 6 -21 11
-76 11 -123 -1 -254 -107 -685 -318 -1287 l-60 -172 52 -34 c116 -77 452 -337
587 -454 14 -12 45 6 260 150 551 371 960 580 1163 595 l69 5 -6 -62 c-23
-218 -262 -676 -640 -1228 l-124 -181 89 -109 c105 -126 270 -343 352 -460 32
-46 61 -83 65 -83 4 0 86 28 182 61 555 196 1005 308 1254 312 126 2 175 -7
175 -33 0 -52 -84 -192 -204 -340 -136 -168 -476 -497 -783 -759 -68 -58 -123
-108 -123 -113 0 -4 30 -74 66 -155 76 -168 156 -366 204 -498 18 -49 36 -94
40 -98 4 -5 106 0 226 10 313 25 970 26 1132 0 172 -27 292 -69 292 -102 0
-23 -71 -105 -148 -171 -200 -171 -627 -421 -1085 -635 l-158 -74 5 -40 c3
-22 17 -112 31 -200 14 -88 34 -250 46 -360 11 -110 22 -205 24 -211 2 -6 25
-15 52 -18 98 -15 543 -107 698 -145 212 -52 425 -119 558 -175 169 -71 284
-147 271 -180 -11 -28 -143 -108 -261 -158 -138 -58 -350 -125 -568 -179 -140
-35 -557 -121 -700 -146 l-50 -8 -7 -55 c-4 -30 -14 -125 -23 -210 -9 -85 -28
-225 -41 -310 -14 -85 -27 -174 -31 -196 l-5 -42 303 -150 c422 -209 671 -354
879 -513 101 -77 220 -202 220 -231 0 -26 -166 -77 -325 -100 -145 -21 -825
-17 -1108 6 -125 10 -229 17 -231 15 -2 -2 -29 -74 -61 -159 -55 -146 -141
-351 -218 -520 l-34 -75 178 -153 c424 -365 717 -665 857 -880 59 -91 98 -180
85 -193 -18 -18 -121 -30 -208 -24 -267 20 -656 118 -1160 293 -110 39 -212
75 -227 81 -26 10 -29 7 -84 -72 -82 -117 -247 -334 -352 -461 l-90 -108 163
-242 c374 -555 605 -1007 605 -1185 l0 -51 -50 0 c-179 0 -630 230 -1186 605
l-241 162 -114 -94 c-126 -104 -400 -313 -484 -369 -51 -34 -53 -38 -43 -62
39 -101 178 -517 223 -671 88 -301 126 -482 146 -682 10 -113 2 -220 -19 -241
-12 -12 -87 16 -157 59 -209 127 -516 420 -874 833 -74 85 -147 170 -163 189
l-29 33 -202 -89 c-111 -50 -282 -121 -379 -158 -168 -64 -178 -70 -178 -94 0
-14 7 -102 16 -196 8 -93 17 -328 21 -521 6 -376 -2 -528 -38 -709 -20 -98
-60 -205 -76 -205 -30 0 -154 117 -232 220 -159 207 -304 457 -512 876 l-149
301 -77 -14 c-189 -33 -658 -93 -728 -93 -8 0 -16 -20 -20 -48 -14 -97 -106
-543 -144 -697 -54 -218 -121 -430 -179 -568 -52 -121 -130 -250 -160 -262
-26 -10 -83 63 -142 181 -104 209 -218 608 -310 1085 -28 145 -53 273 -55 284
-4 19 -20 23 -217 43 -181 18 -304 35 -565 78 l-42 6 -115 -238 c-295 -604
-553 -1006 -721 -1121 l-50 -35 -17 22 c-72 89 -116 470 -104 905 6 224 30
621 41 691 l5 32 -102 37 c-148 54 -341 133 -511 209 -81 36 -151 66 -155 66
-5 0 -53 -53 -107 -117 -246 -291 -597 -653 -765 -789 -130 -106 -254 -181
-322 -198 -25 -6 -28 -3 -37 31 -15 53 -13 190 4 308 37 266 131 607 290 1065
36 102 65 190 65 197 0 6 -37 37 -82 69 -118 82 -335 247 -461 352 l-108 89
-260 -173 c-551 -369 -941 -567 -1143 -582 l-69 -5 6 62 c10 96 59 228 157
426 109 223 226 419 438 734 l163 243 -41 49 c-135 160 -370 467 -450 587
l-15 23 -175 -62 c-554 -196 -1006 -308 -1255 -312 -126 -2 -175 7 -175 33 0
52 84 192 204 340 133 165 472 494 771 749 66 56 121 106 123 110 1 4 -32 83
-73 176 -76 168 -162 378 -211 517 -15 40 -28 74 -29 76 -1 2 -97 -5 -211 -15
-303 -25 -972 -25 -1132 0 -172 27 -292 69 -292 102 0 23 71 105 148 171 196
168 593 401 1088 637 l141 67 -23 138 c-25 143 -68 482 -80 613 l-6 76 -287
56 c-351 70 -595 131 -811 203 -243 80 -460 193 -460 239 0 46 217 159 460
239 216 72 460 133 811 202 l286 57 12 131 c15 166 33 305 68 523 14 95 25
174 22 176 -2 2 -132 67 -289 144 -403 199 -655 347 -860 504 -101 77 -220
202 -220 231 0 26 166 77 325 100 138 20 855 17 1104 -5 107 -10 198 -14 202
-10 4 5 19 41 33 81 48 136 135 348 210 516 42 93 76 169 76 171 0 1 -79 71
-176 155 -426 369 -697 649 -840 870 -53 83 -89 169 -76 182 22 22 133 30 249
19 272 -27 648 -124 1146 -299 l198 -69 56 81 c107 153 326 435 440 567 12 14
-6 44 -140 245 -368 547 -597 997 -597 1173 l0 51 50 0 c177 0 629 -229 1174
-597 149 -100 232 -150 240 -145 6 5 65 53 131 108 110 90 368 284 477 360
l45 32 -74 213 c-215 618 -326 1110 -294 1309 6 35 15 68 20 73 12 12 110 -28
181 -74 183 -118 517 -436 805 -769 88 -101 174 -200 191 -219 l32 -35 63 28
c233 103 444 191 567 236 104 38 142 57 142 69 0 9 -7 93 -16 186 -8 94 -17
328 -21 521 -6 376 2 528 38 709 20 98 60 205 76 205 30 0 154 -117 232 -220
157 -206 304 -456 508 -867 79 -161 150 -293 156 -293 7 0 50 7 97 15 126 22
426 62 578 76 77 7 135 17 137 23 2 6 24 124 50 261 116 608 266 1081 397
1246 21 27 43 49 49 49 5 0 21 -12 35 -27z"/>
</g>


</svg>
